<svg version="1.1" id="Layer_1" xmlns="http://www.w3.org/2000/svg" xmlns:xlink="http://www.w3.org/1999/xlink" x="0px" y="0px"
	 width="100%" viewBox="0 0 193 129" enable-background="new 0 0 193 129" xml:space="preserve">
<path fill="#000000" opacity="1.000000" stroke="none" 
	d="
M119.000000,1.000001 
	C143.924347,1.000000 168.848679,1.000000 194.000000,1.000000 
	C194.000000,24.020397 194.000000,47.041538 193.531677,70.551628 
	C180.936951,71.040573 168.810547,71.040573 156.087479,71.040573 
	C152.795959,82.213486 144.285660,89.797157 133.575668,93.993294 
	C108.606216,103.776199 84.305603,103.037445 62.983440,84.817055 
	C53.722878,76.903625 49.267746,66.143463 56.844414,53.225853 
	C61.350666,45.543045 68.048912,40.536320 75.995964,37.176956 
	C88.778801,31.773432 102.118607,29.892046 115.911118,32.041759 
	C125.706642,33.568501 134.866364,36.714958 143.095917,42.456356 
	C144.980301,43.771008 147.495132,44.821129 149.743210,44.867901 
	C161.233139,45.106956 172.730774,44.991894 184.225586,44.958176 
	C185.624191,44.954067 187.022034,44.694153 190.112076,44.381737 
	C186.434189,38.897758 183.977554,33.949650 180.366760,30.077890 
	C166.298508,14.992906 148.219528,7.596315 128.301941,3.927018 
	C125.129234,3.342528 122.097115,1.994847 119.000000,1.000001 
z"/>
<path fill="#121D30" opacity="1.000000" stroke="none" 
	d="
M118.531342,1.000001 
	C122.097115,1.994847 125.129234,3.342528 128.301941,3.927018 
	C148.219528,7.596315 166.298508,14.992906 180.366760,30.077890 
	C183.977554,33.949650 186.434189,38.897758 190.112076,44.381737 
	C187.022034,44.694153 185.624191,44.954067 184.225586,44.958176 
	C172.730774,44.991894 161.233139,45.106956 149.743210,44.867901 
	C147.495132,44.821129 144.980301,43.771008 143.095917,42.456356 
	C134.866364,36.714958 125.706642,33.568501 115.911118,32.041759 
	C102.118607,29.892046 88.778801,31.773432 75.995964,37.176956 
	C68.048912,40.536320 61.350666,45.543045 56.844414,53.225853 
	C49.267746,66.143463 53.722878,76.903625 62.983440,84.817055 
	C84.305603,103.037445 108.606216,103.776199 133.575668,93.993294 
	C144.285660,89.797157 152.795959,82.213486 156.087479,71.040573 
	C168.810547,71.040573 180.936951,71.040573 193.531677,71.020287 
	C194.000000,73.370560 194.000000,75.741112 193.644714,78.621887 
	C191.478012,82.973259 190.120758,87.119270 187.780609,90.605515 
	C173.878174,111.316689 154.043350,122.992172 129.912689,127.984062 
	C128.528671,128.270370 127.300629,129.310623 126.000000,130.000000 
	C112.312439,130.000000 98.624878,130.000000 84.386360,129.627228 
	C78.056953,127.495735 72.185326,125.993263 66.516846,123.932114 
	C46.411537,116.621521 30.721943,104.043274 20.468019,84.981331 
	C16.263233,77.164665 9.902555,71.857170 1.000000,70.000000 
	C1.000000,69.250000 1.000000,68.500000 1.355665,67.335876 
	C5.075377,64.858986 9.274193,63.477787 11.630289,60.592064 
	C16.588167,54.519733 20.512762,47.612133 24.988058,41.134830 
	C28.731564,35.716679 31.863998,29.543383 36.648262,25.240093 
	C50.643524,12.651817 67.365639,5.427627 86.095558,2.940489 
	C87.131332,2.802950 88.034897,1.669755 89.000000,1.000000 
	C98.687561,1.000000 108.375122,1.000000 118.531342,1.000001 
M79.346718,99.258263 
	C72.856911,95.307236 65.700317,92.134010 60.007267,87.253571 
	C45.264977,74.615532 45.586197,55.934425 60.031288,42.988575 
	C79.315964,25.705439 114.851395,21.976912 138.720596,35.785454 
	C145.941177,39.962627 152.852570,41.413300 160.770325,41.107639 
	C168.124069,40.823753 175.497406,41.047070 183.248734,41.047070 
	C178.330078,32.075397 168.883835,23.306690 157.079742,17.532337 
	C128.393768,3.499658 98.545547,1.517840 68.311317,11.211904 
	C52.193920,16.379660 37.961769,25.314135 29.443325,40.722275 
	C23.770344,50.983547 19.883583,62.367397 7.936596,68.070496 
	C16.307905,72.737282 19.319578,75.512253 24.120358,83.814400 
	C30.915859,95.566063 39.699669,105.305870 51.385105,112.383484 
	C76.673561,127.700150 103.926537,128.890732 131.958191,123.330330 
	C151.720200,119.410301 168.205627,109.591225 180.942795,93.829994 
	C185.503204,88.186874 188.553360,81.846878 189.124207,74.065590 
	C179.677750,74.065590 170.533508,73.990593 161.393860,74.161095 
	C160.259476,74.182259 158.605057,75.244728 158.111267,76.268318 
	C152.383636,88.141518 142.598831,95.172096 130.533615,99.272949 
	C113.792969,104.962944 96.914474,105.098068 79.346718,99.258263 
z"/>
<path fill="#000000" opacity="1.000000" stroke="none" 
	d="
M88.531342,1.000000 
	C88.034897,1.669755 87.131332,2.802950 86.095558,2.940489 
	C67.365639,5.427627 50.643524,12.651817 36.648262,25.240093 
	C31.863998,29.543383 28.731564,35.716679 24.988058,41.134830 
	C20.512762,47.612133 16.588167,54.519733 11.630289,60.592064 
	C9.274193,63.477787 5.075377,64.858986 1.355665,66.960876 
	C1.000000,45.062672 1.000000,23.125345 1.000000,1.000000 
	C30.020624,1.000000 59.041653,1.000000 88.531342,1.000000 
z"/>
<path fill="#000000" opacity="1.000000" stroke="none" 
	d="
M1.000000,70.468658 
	C9.902555,71.857170 16.263233,77.164665 20.468019,84.981331 
	C30.721943,104.043274 46.411537,116.621521 66.516846,123.932114 
	C72.185326,125.993263 78.056953,127.495735 83.917702,129.627228 
	C56.418240,130.000000 28.836477,130.000000 1.000000,130.000000 
	C1.000000,110.313171 1.000000,90.625244 1.000000,70.468658 
z"/>
<path fill="#000000" opacity="1.000000" stroke="none" 
	d="
M126.468658,130.000000 
	C127.300629,129.310623 128.528671,128.270370 129.912689,127.984062 
	C154.043350,122.992172 173.878174,111.316689 187.780609,90.605515 
	C190.120758,87.119270 191.478012,82.973259 193.644714,79.066048 
	C194.000000,95.937263 194.000000,112.874519 194.000000,130.000000 
	C171.646118,130.000000 149.291718,130.000000 126.468658,130.000000 
z"/>
<path fill="#F7F2F1" opacity="1.000000" stroke="none" 
	d="
M79.697113,99.438240 
	C96.914474,105.098068 113.792969,104.962944 130.533615,99.272949 
	C142.598831,95.172096 152.383636,88.141518 158.111267,76.268318 
	C158.605057,75.244728 160.259476,74.182259 161.393860,74.161095 
	C170.533508,73.990593 179.677750,74.065590 189.124207,74.065590 
	C188.553360,81.846878 185.503204,88.186874 180.942795,93.829994 
	C168.205627,109.591225 151.720200,119.410301 131.958191,123.330330 
	C103.926537,128.890732 76.673561,127.700150 51.385105,112.383484 
	C39.699669,105.305870 30.915859,95.566063 24.120358,83.814400 
	C19.319578,75.512253 16.307905,72.737282 7.936596,68.070496 
	C19.883583,62.367397 23.770344,50.983547 29.443325,40.722275 
	C37.961769,25.314135 52.193920,16.379660 68.311317,11.211904 
	C98.545547,1.517840 128.393768,3.499658 157.079742,17.532337 
	C168.883835,23.306690 178.330078,32.075397 183.248734,41.047070 
	C175.497406,41.047070 168.124069,40.823753 160.770325,41.107639 
	C152.852570,41.413300 145.941177,39.962627 138.720596,35.785454 
	C114.851395,21.976912 79.315964,25.705439 60.031288,42.988575 
	C45.586197,55.934425 45.264977,74.615532 60.007267,87.253571 
	C65.700317,92.134010 72.856911,95.307236 79.697113,99.438240 
M51.340939,23.798817 
	C41.769779,30.068771 34.787380,38.458218 29.677124,48.730198 
	C26.181259,55.757137 21.665285,62.276577 17.989145,68.385178 
	C21.454739,73.151253 25.822617,78.336662 29.278288,84.071716 
	C38.043579,98.618660 50.317162,108.787949 65.993126,115.020561 
	C86.264809,123.080399 107.154747,123.871567 128.358978,120.040123 
	C146.801468,116.707710 162.506332,108.196999 175.173340,94.312447 
	C179.327469,89.759003 182.939880,84.828804 184.088348,77.988808 
	C178.475845,77.988808 173.176407,78.249969 167.916855,77.904388 
	C163.866852,77.638275 161.288254,78.682701 159.048370,82.366997 
	C156.843048,85.994484 153.744995,89.252701 150.498260,92.044487 
	C133.551743,106.616356 113.368217,108.940208 92.233894,106.458931 
	C79.435287,104.956314 67.795128,100.184433 57.958012,91.575966 
	C39.403297,75.338745 40.307056,51.075932 60.904091,37.342030 
	C86.223618,20.459208 113.427780,19.286497 140.584961,32.327709 
	C147.823456,35.803726 154.461105,37.899010 162.224777,37.421082 
	C165.544754,37.216709 168.888840,37.433342 172.219543,37.355389 
	C173.235611,37.331612 174.243607,36.963562 175.504730,36.701317 
	C151.162155,8.048663 89.551636,-1.575795 51.340939,23.798817 
z"/>
<path fill="#E64404" opacity="1.000000" stroke="none" 
	d="
M51.631283,23.579889 
	C89.551636,-1.575795 151.162155,8.048663 175.504730,36.701317 
	C174.243607,36.963562 173.235611,37.331612 172.219543,37.355389 
	C168.888840,37.433342 165.544754,37.216709 162.224777,37.421082 
	C154.461105,37.899010 147.823456,35.803726 140.584961,32.327709 
	C113.427780,19.286497 86.223618,20.459208 60.904091,37.342030 
	C40.307056,51.075932 39.403297,75.338745 57.958012,91.575966 
	C67.795128,100.184433 79.435287,104.956314 92.233894,106.458931 
	C113.368217,108.940208 133.551743,106.616356 150.498260,92.044487 
	C153.744995,89.252701 156.843048,85.994484 159.048370,82.366997 
	C161.288254,78.682701 163.866852,77.638275 167.916855,77.904388 
	C173.176407,78.249969 178.475845,77.988808 184.088348,77.988808 
	C182.939880,84.828804 179.327469,89.759003 175.173340,94.312447 
	C162.506332,108.196999 146.801468,116.707710 128.358978,120.040123 
	C107.154747,123.871567 86.264809,123.080399 65.993126,115.020561 
	C50.317162,108.787949 38.043579,98.618660 29.278288,84.071716 
	C25.822617,78.336662 21.454739,73.151253 17.989145,68.385178 
	C21.665285,62.276577 26.181259,55.757137 29.677124,48.730198 
	C34.787380,38.458218 41.769779,30.068771 51.631283,23.579889 
z"/>
</svg>