<svg xmlns="http://www.w3.org/2000/svg" xmlns:xlink="http://www.w3.org/1999/xlink" width="1080" zoomAndPan="magnify" viewBox="0 0 810 809.999993" height="1080" preserveAspectRatio="xMidYMid meet" version="1.0"><path fill="#ffffff" d="M 595.445312 164.109375 C 766.960938 294.636719 636.4375 314.175781 502.488281 333.238281 C 502.488281 333.238281 445.964844 317.644531 348.023438 268.992188 C 125.890625 158.664062 195.824219 106.679688 370.40625 75.222656 C 90.988281 -46.507812 -141.890625 165.433594 115.019531 371.519531 L 44.519531 421.910156 C 102.425781 457.410156 222.410156 531.878906 204.980469 645.917969 L 145.429688 688.476562 L 327.296875 770.890625 L 470.804688 705.859375 C 471.84375 642.707031 584.722656 609.898438 633.289062 481.433594 C 900.644531 420.097656 832.546875 184.921875 595.449219 164.105469 " fill-opacity="1" fill-rule="nonzero"/><path fill="#021018" d="M 388.636719 554.039062 L 337.078125 495.398438 L 277.882812 504.222656 L 305.246094 459.148438 L 253.699219 400.46875 L 322.171875 431.285156 L 349.46875 386.199219 L 364.402344 450.300781 L 432.863281 481.070312 L 373.644531 489.917969 Z M 473.214844 345.304688 C 137.609375 215.6875 115.382812 109.34375 324.863281 72.59375 C 62.878906 1.40625 -89.933594 191.28125 169.28125 372.34375 L 99.730469 422.0625 C 173.585938 471.402344 251.859375 544.488281 225.300781 659.496094 L 190.257812 684.511719 L 324.863281 745.535156 C 450.136719 608.332031 515.652344 475.019531 473.214844 345.300781 " fill-opacity="1" fill-rule="nonzero"/><path fill="#ea0028" d="M 643.617188 184.523438 C 758.796875 274.695312 678.824219 332.308594 538.402344 347.960938 C 573.929688 497.707031 465.003906 634.867188 349.671875 741.074219 L 455.414062 693.167969 C 463.238281 632.304688 570.523438 600.65625 621.355469 465.601562 C 860.136719 412.328125 821.164062 240.96875 643.617188 184.519531 " fill-opacity="1" fill-rule="nonzero"/></svg>