<svg version="1.1" id="Layer_1" xmlns="http://www.w3.org/2000/svg" xmlns:xlink="http://www.w3.org/1999/xlink" x="0px" y="0px"
	 width="100%" viewBox="0 0 1024 1024" enable-background="new 0 0 1024 1024" xml:space="preserve">
<path fill="#000000" opacity="1.000000" stroke="none" 
	d="
M350.838379,650.129883 
	C328.692810,623.970520 315.645264,593.942078 308.657074,560.967224 
	C305.538269,546.250793 304.227600,531.365662 303.878815,516.427917 
	C303.161285,485.696320 310.422455,456.453491 321.500885,428.008270 
	C331.704346,401.809631 345.201965,377.362823 360.609467,353.916626 
	C362.072571,351.690155 363.524261,349.449860 364.848969,347.140076 
	C368.237335,341.231995 364.743195,334.847046 357.905792,334.358734 
	C343.010986,333.295074 342.587860,332.890930 342.671326,318.123413 
	C342.731598,307.464478 343.093842,296.808777 343.334595,286.155670 
	C343.504608,278.631866 346.579498,278.353821 352.137604,278.899017 
	C366.993256,280.356201 381.942627,280.802765 396.593506,284.372589 
	C408.098358,287.175812 419.603302,289.643280 429.880585,295.883728 
	C439.497345,301.723083 443.703613,310.763153 445.349152,321.443634 
	C447.883575,337.893707 441.167023,352.115845 434.458496,366.244598 
	C421.690765,393.134766 406.384094,418.887054 395.860748,446.750763 
	C386.170502,472.408600 380.825745,499.209015 383.414978,526.967041 
	C385.665863,551.097595 395.558044,572.276184 410.316376,591.002441 
	C431.396118,617.749695 459.949677,632.840149 493.024872,638.163147 
	C516.292847,641.907959 539.218933,638.725220 561.059570,628.176270 
	C579.189758,619.419556 595.616638,608.746460 608.753723,593.490723 
	C625.182922,574.411926 636.116089,552.796509 638.764526,527.301636 
	C641.331970,502.586304 636.772156,479.072266 628.803528,455.833160 
	C618.433716,425.591522 603.107422,397.712433 588.583557,369.439606 
	C581.568115,355.782959 576.838379,341.794464 577.467773,326.010193 
	C578.222290,307.086182 585.707458,295.351685 603.721558,289.883484 
	C626.209351,283.057343 649.209167,278.720734 672.844055,278.682983 
	C679.374268,278.672546 680.222229,279.646515 680.354797,286.264832 
	C680.578125,297.414948 679.804321,308.578217 681.014771,319.722565 
	C681.295288,322.305145 680.822449,325.057800 680.234070,327.626404 
	C679.282593,331.780243 676.740417,334.314911 672.151733,334.299469 
	C669.322876,334.289948 666.448914,334.176666 663.672363,334.607330 
	C655.174805,335.925323 652.627991,341.407806 657.429810,348.549774 
	C663.100403,356.983978 668.714539,365.436859 673.990112,374.131409 
	C691.010986,402.183655 705.108154,431.474670 712.794983,463.569122 
	C720.179993,494.403717 721.243896,525.284363 714.753540,556.485046 
	C711.385864,572.674133 707.093445,588.465332 700.529175,603.639709 
	C690.538147,626.735535 675.894897,646.743958 658.477905,664.578491 
	C634.744507,688.880920 606.613403,706.603699 574.440674,717.863770 
	C555.263672,724.575378 535.462463,728.220764 515.313904,728.925903 
	C495.109558,729.632996 475.223694,726.173035 455.818359,720.389160 
	C421.789917,710.246643 392.462006,692.069946 366.651703,667.951660 
	C360.918213,662.594055 356.068665,656.422302 350.838379,650.129883 
M363.489502,374.429108 
	C360.877930,377.267670 359.209167,380.724548 357.375488,384.044189 
	C353.855194,390.417267 350.525085,396.895721 347.147186,403.346771 
	C346.520691,404.543152 345.939301,405.853394 347.590698,406.769043 
	C348.319305,407.173065 349.832581,407.408417 349.799194,406.851959 
	C349.573639,403.094635 353.472748,402.227112 354.699738,399.387115 
	C356.987793,394.091248 359.884735,389.036591 362.805634,384.043793 
	C364.725769,380.761597 366.106476,377.639008 364.518829,373.614380 
	C368.288269,369.137238 374.215057,366.869629 376.674622,360.940094 
	C378.938690,355.481934 381.768951,350.278168 382.743317,344.060974 
	C380.417114,344.134186 380.126526,345.187073 379.804718,346.057526 
	C377.655945,351.870178 374.238983,356.913116 370.584564,361.859070 
	C367.833954,365.581757 365.346466,369.510712 363.489502,374.429108 
M655.978943,531.459167 
	C653.990784,529.874146 652.969238,530.896423 652.388733,532.848694 
	C651.962646,534.281860 651.575012,535.736816 651.315491,537.207642 
	C648.051270,555.705383 640.323975,572.579468 630.615906,588.283020 
	C619.638062,606.040283 604.248901,619.967468 586.922119,631.590210 
	C574.705139,639.785339 561.639954,646.355591 547.330017,650.040833 
	C541.161987,651.629272 534.799805,652.463562 527.842590,653.768677 
	C530.304443,655.411682 532.079224,654.528320 533.808472,654.443542 
	C544.621826,653.913513 554.560364,649.971069 564.654968,646.591370 
	C584.353821,639.996094 600.781860,628.212158 615.568298,614.051147 
	C620.827454,609.014343 625.030212,602.880859 629.775269,597.299072 
	C634.550903,591.681335 637.735657,584.973267 642.117249,579.147888 
	C646.469055,573.362183 646.219238,566.112732 650.026367,559.934021 
	C655.024841,551.821838 655.414612,541.617065 655.978943,531.459167 
M595.188782,346.523590 
	C595.018005,340.379608 594.640991,334.232849 594.723145,328.092255 
	C594.856873,318.097015 599.200500,310.529724 608.474670,306.249756 
	C611.628052,304.794495 614.975220,303.764862 618.184143,302.422028 
	C620.337219,301.521088 622.866333,301.301514 624.835510,299.317902 
	C616.627441,297.189972 599.717224,304.193207 594.544739,311.576080 
	C588.139404,320.718689 588.588562,339.975525 595.791992,350.686462 
	C595.583862,349.176697 595.451843,348.219055 595.188782,346.523590 
M519.470642,686.692810 
	C520.402527,682.830566 519.123962,679.916748 515.803101,677.760559 
	C513.842590,676.487610 511.935425,675.922302 509.801056,677.271912 
	C507.177521,678.930847 504.881897,680.834106 505.371246,684.370728 
	C505.862701,687.922546 507.721924,690.757629 511.171295,691.758972 
	C514.969360,692.861511 517.317322,690.347046 519.470642,686.692810 
M685.553528,502.066864 
	C684.981934,501.067200 684.540955,499.958771 683.815430,499.087250 
	C681.114441,495.842896 677.094604,495.156494 674.109558,497.320526 
	C670.959351,499.604248 670.435181,503.984833 672.821960,507.515594 
	C674.586182,510.125580 676.933350,511.519897 680.019104,510.466370 
	C683.551208,509.260437 686.134216,507.088287 685.553528,502.066864 
M350.286682,500.247192 
	C346.271088,495.562378 342.491821,494.817139 339.485046,498.192535 
	C336.585785,501.447205 336.960541,504.689606 339.394226,508.132324 
	C341.578796,511.222687 344.336060,511.460022 347.210358,509.865906 
	C350.681274,507.940948 352.947693,505.190613 350.286682,500.247192 
M396.490356,343.225922 
	C395.541382,344.475433 395.242981,345.897552 395.329834,347.438782 
	C395.550964,351.363434 400.873352,356.401062 403.502533,354.880615 
	C406.226807,353.305145 408.484222,350.897675 408.586182,347.413086 
	C408.676727,344.319061 407.145996,342.160248 404.323395,340.733368 
	C401.183777,339.146240 398.939453,340.248688 396.490356,343.225922 
M379.405640,626.013611 
	C381.202209,624.157471 383.865448,622.776428 383.393799,619.589111 
	C382.939056,616.515686 377.921661,613.249939 375.047729,614.017273 
	C371.395599,614.992310 368.658020,618.770081 369.511475,621.656982 
	C370.896423,626.341614 374.416565,628.149597 379.405640,626.013611 
M651.400269,618.143555 
	C649.044556,615.773621 647.194580,611.828125 642.901733,614.406982 
	C640.211975,616.022949 638.185303,618.560730 640.297485,621.905518 
	C642.043701,624.671021 643.332825,629.398560 647.652344,627.596497 
	C650.663635,626.340210 653.891663,623.318970 651.400269,618.143555 
M624.873474,351.338593 
	C625.294678,350.620911 625.884949,349.952057 626.108521,349.177368 
	C627.222717,345.315247 625.154968,342.626129 622.197815,340.903748 
	C619.608459,339.395569 616.991699,340.341461 615.221863,342.869385 
	C613.193115,345.767090 614.565857,350.256104 618.238220,353.416046 
	C621.089661,355.869598 622.712830,353.741364 624.873474,351.338593 
M326.319489,466.460693 
	C325.270233,466.426025 324.220367,466.599365 323.805176,467.664551 
	C320.936829,475.022675 319.970886,482.615356 320.421021,491.725891 
	C325.187927,485.652832 325.895844,479.640778 326.586975,473.838196 
	C326.866821,471.488617 329.655548,468.959656 326.319489,466.460693 
M651.311157,477.255676 
	C652.246704,479.327026 651.444580,481.545349 651.844971,483.651428 
	C652.240051,485.729584 652.774780,487.781128 653.248230,489.844330 
	C654.415283,483.726715 653.868958,477.980713 650.871582,472.631470 
	C650.968384,473.937042 651.065186,475.242645 651.311157,477.255676 
z"/>
<path fill="#000000" opacity="1.000000" stroke="none" 
	d="
M294.279236,338.910156 
	C295.228516,347.157806 295.783234,354.946075 293.267517,362.597717 
	C292.583160,364.679199 291.941040,367.227478 289.275482,367.005859 
	C286.097839,366.741669 286.954346,363.733673 286.941010,361.817719 
	C286.759979,335.848358 286.702789,309.878113 286.598663,283.908173 
	C286.570679,276.929565 285.678436,269.975891 286.456421,262.962372 
	C286.804382,259.825623 287.867279,258.629181 291.044037,258.638306 
	C324.672150,258.734863 358.300507,258.729462 391.928741,258.792236 
	C393.347717,258.794891 394.967712,258.496094 396.564453,260.598450 
	C393.121857,263.692230 389.041199,265.228821 384.595612,264.993408 
	C374.650391,264.466675 364.730133,263.481842 354.795074,262.745911 
	C348.160339,262.254425 341.534576,261.906006 334.912994,263.164307 
	C331.060974,263.896301 329.058502,266.045441 328.768433,269.877228 
	C328.618042,271.863739 328.497986,273.854218 328.431427,275.845154 
	C328.003479,288.646118 327.620575,301.448700 327.144043,314.247833 
	C327.086884,315.782257 327.503021,317.635956 325.664642,318.655029 
	C319.587830,309.974304 312.917694,307.941040 302.585205,311.464996 
	C299.484558,312.522461 298.267456,314.952698 297.568848,317.792084 
	C295.896179,324.590027 294.811584,331.488007 294.279236,338.910156 
z"/>
<path fill="#000000" opacity="1.000000" stroke="none" 
	d="
M361.408020,738.814941 
	C362.824371,741.507874 363.929474,744.031494 365.312012,747.188660 
	C357.344635,748.603760 349.839417,748.223267 342.140717,746.865723 
	C349.122131,745.406555 353.685394,738.806091 361.408020,738.814941 
z"/>
</svg>