<svg version="1.1" id="Layer_1" xmlns="http://www.w3.org/2000/svg" xmlns:xlink="http://www.w3.org/1999/xlink" x="0px" y="0px"
	 width="100%" viewBox="0 0 460 272" enable-background="new 0 0 460 272" xml:space="preserve">
<path fill="#FBFBFB" opacity="1.000000" stroke="none" 
	d="
M192.000000,1.000002 
	C217.687561,1.000000 243.375122,1.000000 269.227264,1.371472 
	C270.236328,2.158216 271.043396,2.814445 271.930939,2.952150 
	C282.989777,4.667999 294.099457,6.084688 305.120148,8.012253 
	C333.322968,12.945051 360.032501,22.196791 385.351776,35.662392 
	C404.301636,45.740543 421.481903,57.903023 435.720551,74.132263 
	C446.874542,86.845619 455.324036,100.877808 459.083649,117.523605 
	C459.220428,118.129120 460.338989,118.512901 461.000000,119.000015 
	C461.000000,130.687561 461.000000,142.375122 460.659515,154.232498 
	C459.293945,157.384598 458.254883,160.362152 457.245880,163.349884 
	C449.049469,187.620270 432.892792,205.784714 412.937103,221.003952 
	C400.495941,230.492233 387.187195,238.655762 372.723816,244.576843 
	C358.234802,250.508438 343.640839,256.448090 328.627899,260.768250 
	C310.170105,266.079712 291.264801,269.898132 271.962769,271.090027 
	C271.271851,271.132690 270.652618,272.337036 270.000000,273.000000 
	C244.312439,273.000000 218.624878,273.000000 192.772736,272.628662 
	C191.597122,271.841461 190.620010,271.203979 189.569901,271.043274 
	C175.938629,268.957031 162.091614,267.822296 148.702621,264.710785 
	C124.148575,259.004486 100.294136,251.078629 77.900940,239.078247 
	C58.567478,228.717590 40.797207,216.535156 26.285276,199.860275 
	C15.200106,187.122910 6.666473,173.126633 2.916271,156.476334 
	C2.779942,155.871048 1.661003,155.487106 0.999999,155.000000 
	C1.000000,143.312439 1.000000,131.624878 1.340466,119.767502 
	C2.705988,116.615479 3.755655,113.641479 4.752213,110.649773 
	C12.859910,86.310265 29.089571,68.218826 49.050789,52.981876 
	C61.498100,43.480499 74.838280,35.333637 89.292435,29.463848 
	C105.123589,23.034870 121.123734,16.600952 137.608658,12.319126 
	C154.738678,7.869748 172.539993,6.011235 190.030304,2.920938 
	C190.776703,2.789060 191.347443,1.662955 192.000000,1.000002 
M225.517776,8.038800 
	C181.854767,8.773248 139.435120,15.934916 99.044891,33.061630 
	C73.042297,44.087547 49.346352,58.630165 30.671461,80.304680 
	C0.582054,115.227119 -0.201507,157.203918 28.619499,193.155762 
	C43.148159,211.279053 61.685375,224.415543 82.135117,234.959564 
	C117.509308,253.198761 155.393158,262.554626 194.825668,266.234070 
	C244.490662,270.868256 293.268097,266.593994 340.766998,250.934464 
	C372.549713,240.456314 401.779663,225.408203 425.481934,201.082001 
	C461.503021,164.112579 462.793060,117.097557 428.684540,78.431374 
	C412.668274,60.274963 392.811310,47.281075 371.066742,37.123093 
	C325.264099,15.726401 276.699219,7.785964 225.517776,8.038800 
z"/>
<path fill="#000000" opacity="1.000000" stroke="none" 
	d="
M0.999999,155.468658 
	C1.661003,155.487106 2.779942,155.871048 2.916271,156.476334 
	C6.666473,173.126633 15.200106,187.122910 26.285276,199.860275 
	C40.797207,216.535156 58.567478,228.717590 77.900940,239.078247 
	C100.294136,251.078629 124.148575,259.004486 148.702621,264.710785 
	C162.091614,267.822296 175.938629,268.957031 189.569901,271.043274 
	C190.620010,271.203979 191.597122,271.841461 192.304077,272.628662 
	C128.423569,273.000000 64.847137,273.000000 1.000000,273.000000 
	C1.000000,233.979523 1.000000,194.958420 0.999999,155.468658 
z"/>
<path fill="#000000" opacity="1.000000" stroke="none" 
	d="
M191.531342,1.000002 
	C191.347443,1.662955 190.776703,2.789060 190.030304,2.920938 
	C172.539993,6.011235 154.738678,7.869748 137.608658,12.319126 
	C121.123734,16.600952 105.123589,23.034870 89.292435,29.463848 
	C74.838280,35.333637 61.498100,43.480499 49.050789,52.981876 
	C29.089571,68.218826 12.859910,86.310265 4.752213,110.649773 
	C3.755655,113.641479 2.705988,116.615479 1.340466,119.298843 
	C1.000000,79.722412 1.000000,40.444832 1.000000,1.000000 
	C64.354126,1.000000 127.708405,1.000000 191.531342,1.000002 
z"/>
<path fill="#000000" opacity="1.000000" stroke="none" 
	d="
M270.468658,273.000000 
	C270.652618,272.337036 271.271851,271.132690 271.962769,271.090027 
	C291.264801,269.898132 310.170105,266.079712 328.627899,260.768250 
	C343.640839,256.448090 358.234802,250.508438 372.723816,244.576843 
	C387.187195,238.655762 400.495941,230.492233 412.937103,221.003952 
	C432.892792,205.784714 449.049469,187.620270 457.245880,163.349884 
	C458.254883,160.362152 459.293945,157.384598 460.659515,154.701157 
	C461.000000,194.277573 461.000000,233.555161 461.000000,273.000000 
	C397.645874,273.000000 334.291595,273.000000 270.468658,273.000000 
z"/>
<path fill="#000000" opacity="1.000000" stroke="none" 
	d="
M461.000000,118.531357 
	C460.338989,118.512901 459.220428,118.129120 459.083649,117.523605 
	C455.324036,100.877808 446.874542,86.845619 435.720551,74.132263 
	C421.481903,57.903023 404.301636,45.740543 385.351776,35.662392 
	C360.032501,22.196791 333.322968,12.945051 305.120148,8.012253 
	C294.099457,6.084688 282.989777,4.667999 271.930939,2.952150 
	C271.043396,2.814445 270.236328,2.158216 269.695923,1.371472 
	C333.576416,1.000000 397.152832,1.000000 461.000000,1.000000 
	C461.000000,40.020477 461.000000,79.041580 461.000000,118.531357 
z"/>
<path fill="#030303" opacity="1.000000" stroke="none" 
	d="
M226.015137,8.038641 
	C276.699219,7.785964 325.264099,15.726401 371.066742,37.123093 
	C392.811310,47.281075 412.668274,60.274963 428.684540,78.431374 
	C462.793060,117.097557 461.503021,164.112579 425.481934,201.082001 
	C401.779663,225.408203 372.549713,240.456314 340.766998,250.934464 
	C293.268097,266.593994 244.490662,270.868256 194.825668,266.234070 
	C155.393158,262.554626 117.509308,253.198761 82.135117,234.959564 
	C61.685375,224.415543 43.148159,211.279053 28.619499,193.155762 
	C-0.201507,157.203918 0.582054,115.227119 30.671461,80.304680 
	C49.346352,58.630165 73.042297,44.087547 99.044891,33.061630 
	C139.435120,15.934916 181.854767,8.773248 226.015137,8.038641 
M64.496613,200.994308 
	C75.869011,212.680389 88.986595,222.043015 103.320755,229.683609 
	C135.089325,246.617325 169.203857,255.351120 204.928101,258.240173 
	C248.472168,261.761627 291.064880,257.452148 332.191498,242.091431 
	C360.507233,231.515533 386.296661,216.840469 405.556763,192.890900 
	C427.106293,166.094528 432.763153,136.611404 417.629181,104.789177 
	C408.135559,84.826965 392.535797,70.089127 374.306122,58.096401 
	C342.051086,36.876842 306.140259,26.131638 268.105652,21.763117 
	C225.214310,16.836769 182.979248,19.873566 141.742691,33.111233 
	C111.712959,42.751316 84.175003,56.870678 62.370220,80.322464 
	C45.888649,98.048965 35.879425,118.666710 37.162476,143.461853 
	C38.329456,166.013840 48.772499,184.434341 64.496613,200.994308 
z"/>
<path fill="#B1965B" opacity="1.000000" stroke="none" 
	d="
M64.251907,200.739227 
	C48.772499,184.434341 38.329456,166.013840 37.162476,143.461853 
	C35.879425,118.666710 45.888649,98.048965 62.370220,80.322464 
	C84.175003,56.870678 111.712959,42.751316 141.742691,33.111233 
	C182.979248,19.873566 225.214310,16.836769 268.105652,21.763117 
	C306.140259,26.131638 342.051086,36.876842 374.306122,58.096401 
	C392.535797,70.089127 408.135559,84.826965 417.629181,104.789177 
	C432.763153,136.611404 427.106293,166.094528 405.556763,192.890900 
	C386.296661,216.840469 360.507233,231.515533 332.191498,242.091431 
	C291.064880,257.452148 248.472168,261.761627 204.928101,258.240173 
	C169.203857,255.351120 135.089325,246.617325 103.320755,229.683609 
	C88.986595,222.043015 75.869011,212.680389 64.251907,200.739227 
M363.133118,213.655823 
	C374.133728,206.284485 383.895172,197.579956 392.314453,187.309921 
	C413.939880,160.930695 416.947021,128.489899 399.961731,98.916809 
	C389.929199,81.449203 375.139221,68.587090 358.208435,58.134029 
	C325.589752,37.995243 289.536621,28.714211 251.721954,26.233522 
	C214.004395,23.759209 176.917938,27.719313 141.232193,41.043079 
	C114.499039,51.024273 90.385178,64.962593 71.931419,87.414124 
	C46.895569,117.873672 46.949642,157.318634 72.021362,187.686981 
	C90.522995,210.097244 114.586502,224.147156 141.378494,233.956680 
	C185.519882,250.118469 230.992111,252.932816 277.130890,245.820969 
	C307.680206,241.112091 336.547058,231.312668 363.133118,213.655823 
z"/>
<path fill="#A90000" opacity="1.000000" stroke="none" 
	d="
M362.832764,213.855042 
	C336.547058,231.312668 307.680206,241.112091 277.130890,245.820969 
	C230.992111,252.932816 185.519882,250.118469 141.378494,233.956680 
	C114.586502,224.147156 90.522995,210.097244 72.021362,187.686981 
	C46.949642,157.318634 46.895569,117.873672 71.931419,87.414124 
	C90.385178,64.962593 114.499039,51.024273 141.232193,41.043079 
	C176.917938,27.719313 214.004395,23.759209 251.721954,26.233522 
	C289.536621,28.714211 325.589752,37.995243 358.208435,58.134029 
	C375.139221,68.587090 389.929199,81.449203 399.961731,98.916809 
	C416.947021,128.489899 413.939880,160.930695 392.314453,187.309921 
	C383.895172,197.579956 374.133728,206.284485 362.832764,213.855042 
M195.222412,142.968674 
	C182.463776,139.810333 170.251312,135.143692 160.649658,125.996384 
	C154.992035,120.606483 149.184616,117.973549 141.572403,119.122421 
	C140.920670,119.220779 140.234207,119.199532 139.575989,119.125786 
	C136.416275,118.771774 135.101440,119.975731 135.130341,123.326874 
	C135.256851,137.989349 135.159210,152.653671 135.231674,167.316895 
	C135.237579,168.508759 135.631424,169.903534 136.325546,170.852570 
	C139.777908,175.572845 144.883804,174.930374 149.957932,175.324646 
	C158.062454,175.954422 163.089996,172.428757 165.846771,165.319794 
	C167.222794,161.771439 169.082993,161.667419 172.350143,162.500763 
	C180.708694,164.632797 189.139709,166.545486 197.623306,168.101105 
	C203.923676,169.256409 210.351791,169.715012 216.984268,170.515472 
	C216.984268,180.290771 216.798843,189.776794 217.058075,199.250626 
	C217.199707,204.426819 215.017044,207.935364 210.697983,210.176697 
	C207.766495,211.697952 204.672287,213.149719 201.478836,213.871506 
	C194.701797,215.403320 187.812408,216.438004 180.595444,217.744125 
	C180.595444,222.356110 180.595444,227.281662 180.595444,232.280884 
	C181.922348,232.840378 184.265671,233.249130 184.363510,233.964859 
	C184.946335,238.227905 188.047211,237.040329 190.443527,237.043945 
	C221.603561,237.091003 252.763687,237.075150 283.923798,237.075150 
	C285.695953,237.075150 287.468079,237.075150 289.795441,237.075150 
	C289.795441,234.633926 289.793030,232.843796 289.795837,231.053650 
	C289.813416,219.771713 287.911194,217.619263 276.947205,216.038193 
	C274.168213,215.637421 271.044312,215.400131 268.814270,213.953842 
	C265.628693,211.887833 261.577026,209.209549 260.681976,206.012558 
	C259.313477,201.124481 260.322968,195.570663 260.322968,189.969864 
	C271.235474,189.969864 281.586884,189.404633 291.814728,190.281265 
	C295.320099,190.581711 298.910645,194.094910 301.720306,196.886948 
	C303.730133,198.884140 304.201416,202.339355 305.910492,204.753799 
	C307.765869,207.375015 309.909668,210.933960 312.553467,211.599991 
	C317.038361,212.729843 322.014221,211.910645 327.202209,211.910645 
	C327.202209,209.415161 327.202209,207.607788 327.202209,205.800415 
	C327.202240,188.970627 327.204376,172.140839 327.201233,155.311050 
	C327.199982,148.529663 323.710083,145.103180 316.815338,145.098389 
	C314.982391,145.097122 313.134705,145.246307 311.319763,145.065659 
	C308.142395,144.749405 306.597931,145.821365 305.854767,149.179825 
	C304.086548,157.170364 298.759827,162.187439 291.133484,164.770554 
	C282.625214,167.652405 268.277222,167.777527 259.094971,165.195679 
	C259.349121,164.999786 259.574188,164.712631 259.861542,164.621170 
	C272.705750,160.533859 284.724915,155.087723 293.817139,144.592651 
	C294.555664,143.740173 296.155273,143.250092 297.358856,143.242584 
	C311.521912,143.154327 325.689331,143.001541 339.847961,143.268967 
	C347.594269,143.415268 350.269440,145.803009 351.894684,153.303436 
	C352.802399,157.492661 352.984833,161.839035 353.467773,165.893799 
	C359.309204,174.055481 367.581085,170.539001 375.724426,171.018738 
	C375.724426,168.595917 375.724426,166.798523 375.724426,165.001144 
	C375.724426,153.003677 375.726624,141.006195 375.723480,129.008728 
	C375.721924,122.953247 371.719086,118.898621 365.715149,118.896629 
	C345.386108,118.889870 325.057007,118.906555 304.728027,118.874367 
	C302.712219,118.871170 301.090668,119.173737 299.646637,116.378769 
	C296.263733,109.830917 292.387543,103.370720 287.693390,97.720497 
	C283.944275,93.207771 278.693634,89.942497 273.615509,85.712006 
	C281.611450,85.712006 289.061249,85.712006 297.111542,85.712006 
	C297.111542,74.094826 297.120819,62.819698 297.086365,51.544704 
	C297.084503,50.929043 296.912018,50.047840 296.490784,49.741528 
	C293.072174,47.255623 290.275421,44.096230 285.017365,44.907021 
	C279.483490,45.760349 273.715118,45.156548 268.050720,45.078815 
	C263.871277,45.021469 259.866669,44.882050 256.327911,48.027203 
	C255.218964,49.012825 252.570496,48.754108 250.761902,48.391228 
	C225.496750,43.321995 200.250778,42.313675 175.138611,49.054672 
	C162.188873,52.530846 149.587250,57.014629 140.601425,67.825401 
	C134.197357,75.530090 130.468079,84.286354 134.654526,94.131256 
	C139.023254,104.404831 147.069733,111.687683 157.691956,114.862747 
	C167.340805,117.746872 177.416931,119.327370 187.394943,120.915596 
	C190.849533,121.465477 192.080261,122.441109 192.628174,125.903290 
	C193.365265,130.561050 190.097458,136.570114 196.648148,139.618637 
	C197.031525,139.797058 196.849686,141.189972 196.519241,142.223663 
	C196.277664,142.426666 196.105133,142.677216 195.222412,142.968674 
z"/>
<path fill="#090606" opacity="1.000000" stroke="none" 
	d="
M196.930878,142.017700 
	C196.849686,141.189972 197.031525,139.797058 196.648148,139.618637 
	C190.097458,136.570114 193.365265,130.561050 192.628174,125.903290 
	C192.080261,122.441109 190.849533,121.465477 187.394943,120.915596 
	C177.416931,119.327370 167.340805,117.746872 157.691956,114.862747 
	C147.069733,111.687683 139.023254,104.404831 134.654526,94.131256 
	C130.468079,84.286354 134.197357,75.530090 140.601425,67.825401 
	C149.587250,57.014629 162.188873,52.530846 175.138611,49.054672 
	C200.250778,42.313675 225.496750,43.321995 250.761902,48.391228 
	C252.570496,48.754108 255.218964,49.012825 256.327911,48.027203 
	C259.866669,44.882050 263.871277,45.021469 268.050720,45.078815 
	C273.715118,45.156548 279.483490,45.760349 285.017365,44.907021 
	C290.275421,44.096230 293.072174,47.255623 296.490784,49.741528 
	C296.912018,50.047840 297.084503,50.929043 297.086365,51.544704 
	C297.120819,62.819698 297.111542,74.094826 297.111542,85.712006 
	C289.061249,85.712006 281.611450,85.712006 273.615509,85.712006 
	C278.693634,89.942497 283.944275,93.207771 287.693390,97.720497 
	C292.387543,103.370720 296.263733,109.830917 299.646637,116.378769 
	C301.090668,119.173737 302.712219,118.871170 304.728027,118.874367 
	C325.057007,118.906555 345.386108,118.889870 365.715149,118.896629 
	C371.719086,118.898621 375.721924,122.953247 375.723480,129.008728 
	C375.726624,141.006195 375.724426,153.003677 375.724426,165.001144 
	C375.724426,166.798523 375.724426,168.595917 375.724426,171.018738 
	C367.581085,170.539001 359.309204,174.055481 353.467773,165.893799 
	C352.984833,161.839035 352.802399,157.492661 351.894684,153.303436 
	C350.269440,145.803009 347.594269,143.415268 339.847961,143.268967 
	C325.689331,143.001541 311.521912,143.154327 297.358856,143.242584 
	C296.155273,143.250092 294.555664,143.740173 293.817139,144.592651 
	C284.724915,155.087723 272.705750,160.533859 259.861542,164.621170 
	C259.574188,164.712631 259.349121,164.999786 259.097290,165.198669 
	C268.277222,167.777527 282.625214,167.652405 291.133484,164.770554 
	C298.759827,162.187439 304.086548,157.170364 305.854767,149.179825 
	C306.597931,145.821365 308.142395,144.749405 311.319763,145.065659 
	C313.134705,145.246307 314.982391,145.097122 316.815338,145.098389 
	C323.710083,145.103180 327.199982,148.529663 327.201233,155.311050 
	C327.204376,172.140839 327.202240,188.970627 327.202209,205.800415 
	C327.202209,207.607788 327.202209,209.415161 327.202209,211.910645 
	C322.014221,211.910645 317.038361,212.729843 312.553467,211.599991 
	C309.909668,210.933960 307.765869,207.375015 305.910492,204.753799 
	C304.201416,202.339355 303.730133,198.884140 301.720306,196.886948 
	C298.910645,194.094910 295.320099,190.581711 291.814728,190.281265 
	C281.586884,189.404633 271.235474,189.969864 260.322968,189.969864 
	C260.322968,195.570663 259.313477,201.124481 260.681976,206.012558 
	C261.577026,209.209549 265.628693,211.887833 268.814270,213.953842 
	C271.044312,215.400131 274.168213,215.637421 276.947205,216.038193 
	C287.911194,217.619263 289.813416,219.771713 289.795837,231.053650 
	C289.793030,232.843796 289.795441,234.633926 289.795441,237.075150 
	C287.468079,237.075150 285.695953,237.075150 283.923798,237.075150 
	C252.763687,237.075150 221.603561,237.091003 190.443527,237.043945 
	C188.047211,237.040329 184.946335,238.227905 184.363510,233.964859 
	C184.265671,233.249130 181.922348,232.840378 180.595444,232.280884 
	C180.595444,227.281662 180.595444,222.356110 180.595444,217.744125 
	C187.812408,216.438004 194.701797,215.403320 201.478836,213.871506 
	C204.672287,213.149719 207.766495,211.697952 210.697983,210.176697 
	C215.017044,207.935364 217.199707,204.426819 217.058075,199.250626 
	C216.798843,189.776794 216.984268,180.290771 216.984268,170.515472 
	C210.351791,169.715012 203.923676,169.256409 197.623306,168.101105 
	C189.139709,166.545486 180.708694,164.632797 172.350143,162.500763 
	C169.082993,161.667419 167.222794,161.771439 165.846771,165.319794 
	C163.089996,172.428757 158.062454,175.954422 149.957932,175.324646 
	C144.883804,174.930374 139.777908,175.572845 136.325546,170.852570 
	C135.631424,169.903534 135.237579,168.508759 135.231674,167.316895 
	C135.159210,152.653671 135.256851,137.989349 135.130341,123.326874 
	C135.101440,119.975731 136.416275,118.771774 139.575989,119.125786 
	C140.234207,119.199532 140.920670,119.220779 141.572403,119.122421 
	C149.184616,117.973549 154.992035,120.606483 160.649658,125.996384 
	C170.251312,135.143692 182.463776,139.810333 195.903473,143.221619 
	C202.571503,144.450485 208.558456,145.426392 214.545425,146.402298 
	C214.736053,145.668259 214.926697,144.934204 215.117340,144.200165 
	C213.010971,143.478638 210.942810,142.318497 208.789948,142.131027 
	C204.863403,141.789139 200.886658,142.023651 196.930878,142.017700 
M141.683350,72.294907 
	C132.649628,86.399361 136.367004,99.211197 151.571884,106.182213 
	C153.828140,107.216644 156.151871,108.405251 158.557281,108.762619 
	C171.355270,110.664024 184.142563,112.989220 197.022964,113.892151 
	C211.960510,114.939293 227.002014,114.419151 241.974182,115.106583 
	C246.667542,115.322075 251.563385,116.612511 255.867630,118.530540 
	C262.303345,121.398399 264.051086,127.468552 261.425018,134.060043 
	C259.023834,140.086929 254.188080,143.405777 248.576294,145.908417 
	C239.164215,150.105881 229.173294,150.409012 219.157394,149.939789 
	C196.570786,148.881668 175.069061,143.880753 157.804459,128.377182 
	C151.912216,123.085968 146.220764,122.535713 139.313721,123.227470 
	C139.313721,138.082474 139.313721,152.800873 139.313721,167.491302 
	C154.288116,168.735458 154.288116,168.735458 161.706619,152.689697 
	C162.780396,153.014435 163.883499,153.326309 164.972794,153.680679 
	C188.091919,161.202087 211.715759,164.218567 235.897873,160.974823 
	C252.381546,158.763733 268.260803,154.448471 281.432343,143.593307 
	C295.817932,131.737564 297.102844,114.082741 284.934814,99.960426 
	C279.570557,93.734627 272.869934,89.358757 265.015106,87.252731 
	C257.968048,85.363274 250.738312,83.652359 243.495026,83.102264 
	C228.557892,81.967873 213.543930,81.872192 198.592728,80.879738 
	C194.243347,80.591034 189.718887,79.298172 185.778107,77.413139 
	C180.791733,75.027977 180.142563,69.998405 184.400040,66.470284 
	C187.462250,63.932659 191.436249,61.649361 195.285034,61.044865 
	C219.349930,57.265175 242.172684,61.963303 263.015076,74.096924 
	C271.843231,79.236313 280.422791,77.467789 289.351379,78.021950 
	C289.351379,68.024719 289.351379,58.608418 289.351379,48.933060 
	C281.069366,48.933060 273.076447,48.786228 265.095520,49.030930 
	C262.961945,49.096348 260.893219,50.462658 258.743530,51.041714 
	C256.517059,51.641460 254.068115,52.788734 251.991577,52.361004 
	C228.742599,47.572170 205.426926,46.094048 182.084793,51.171516 
	C167.026260,54.447102 152.377045,58.932419 141.683350,72.294907 
M232.862518,170.319000 
	C228.914490,170.615311 224.966461,170.911636 220.673752,171.233826 
	C220.673752,180.850067 220.545197,190.308472 220.720505,199.761261 
	C220.831146,205.727921 218.345596,210.097046 213.306152,212.916504 
	C210.290024,214.603958 207.069717,216.165070 203.744766,217.010925 
	C197.353317,218.636917 190.822235,219.714081 184.440125,221.000519 
	C184.440125,223.750809 184.440125,226.484024 184.440125,229.144882 
	C217.048904,229.144882 249.302765,229.144882 281.635620,229.144882 
	C281.635620,226.123825 281.635620,223.387039 281.635620,221.624313 
	C274.384155,219.149216 267.510651,217.289398 261.075317,214.439926 
	C256.596619,212.456802 253.122726,208.628983 252.900970,203.292435 
	C252.612427,196.349304 252.830429,189.385132 252.830429,181.992203 
	C262.922485,181.992203 272.721405,182.286942 282.494171,181.907257 
	C291.803772,181.545563 298.520111,185.625381 303.569275,192.897171 
	C305.914673,196.274979 307.665771,200.065414 309.816650,203.901276 
	C312.758575,203.901276 316.034515,203.901276 319.413025,203.901276 
	C319.413025,185.499344 319.413025,167.313660 319.413025,149.255554 
	C315.944946,149.255554 312.853302,149.255554 309.704742,149.255554 
	C306.603790,162.020157 297.719788,167.909042 285.802307,169.715225 
	C280.254272,170.556061 274.481384,170.799820 268.895569,170.320816 
	C257.164764,169.314850 245.492599,167.284500 232.862518,170.319000 
M353.491333,122.320221 
	C336.391327,122.320221 319.291290,122.320221 302.415710,122.320221 
	C301.286346,127.047256 300.294220,131.199890 299.203888,135.763535 
	C311.230927,135.763535 323.165192,135.703094 335.098511,135.781693 
	C345.607849,135.850906 351.986664,140.511124 354.935791,150.572891 
	C356.138702,154.677078 356.572876,159.006561 357.381439,163.366455 
	C360.685394,163.366455 364.093292,163.366455 367.606262,163.366455 
	C367.606262,149.641220 367.606262,136.230606 367.606262,122.320236 
	C363.071289,122.320236 358.778534,122.320236 353.491333,122.320221 
M218.893265,140.908279 
	C219.747925,141.960144 220.470581,143.771866 221.477570,143.946793 
	C231.974350,145.770187 242.047714,144.623566 251.076645,138.498657 
	C254.356857,136.273468 257.636169,132.905426 255.620422,129.032120 
	C254.211609,126.325073 250.154846,124.955910 247.194748,123.128571 
	C246.566406,122.740685 245.564758,122.904282 244.735046,122.903732 
	C228.645065,122.893105 212.555084,122.895851 196.453400,122.895851 
	C196.453400,127.015434 196.453400,130.703506 196.453400,134.658813 
	C200.636719,134.658813 204.449722,134.753693 208.256027,134.634338 
	C212.818573,134.491272 216.384109,136.002289 218.893265,140.908279 
M213.511200,77.936020 
	C232.011658,77.426788 250.266525,79.430641 269.079010,84.404526 
	C268.175629,83.019768 268.064362,82.643372 267.817841,82.500565 
	C247.162659,70.537010 224.950272,65.638176 201.215530,68.248428 
	C196.696808,68.745384 192.188599,70.178703 189.653290,75.484505 
	C197.369705,78.095917 204.952911,77.938927 213.511200,77.936020 
z"/>
<path fill="#820000" opacity="1.000000" stroke="none" 
	d="
M196.725052,142.120682 
	C200.886658,142.023651 204.863403,141.789139 208.789948,142.131027 
	C210.942810,142.318497 213.010971,143.478638 215.117340,144.200165 
	C214.926697,144.934204 214.736053,145.668259 214.545425,146.402298 
	C208.558456,145.426392 202.571503,144.450485 196.293091,143.224945 
	C196.105133,142.677216 196.277664,142.426666 196.725052,142.120682 
z"/>
<path fill="#FCFCFC" opacity="1.000000" stroke="none" 
	d="
M141.882507,71.991035 
	C152.377045,58.932419 167.026260,54.447102 182.084793,51.171516 
	C205.426926,46.094048 228.742599,47.572170 251.991577,52.361004 
	C254.068115,52.788734 256.517059,51.641460 258.743530,51.041714 
	C260.893219,50.462658 262.961945,49.096348 265.095520,49.030930 
	C273.076447,48.786228 281.069366,48.933060 289.351379,48.933060 
	C289.351379,58.608418 289.351379,68.024719 289.351379,78.021950 
	C280.422791,77.467789 271.843231,79.236313 263.015076,74.096924 
	C242.172684,61.963303 219.349930,57.265175 195.285034,61.044865 
	C191.436249,61.649361 187.462250,63.932659 184.400040,66.470284 
	C180.142563,69.998405 180.791733,75.027977 185.778107,77.413139 
	C189.718887,79.298172 194.243347,80.591034 198.592728,80.879738 
	C213.543930,81.872192 228.557892,81.967873 243.495026,83.102264 
	C250.738312,83.652359 257.968048,85.363274 265.015106,87.252731 
	C272.869934,89.358757 279.570557,93.734627 284.934814,99.960426 
	C297.102844,114.082741 295.817932,131.737564 281.432343,143.593307 
	C268.260803,154.448471 252.381546,158.763733 235.897873,160.974823 
	C211.715759,164.218567 188.091919,161.202087 164.972794,153.680679 
	C163.883499,153.326309 162.780396,153.014435 161.706619,152.689697 
	C154.288116,168.735458 154.288116,168.735458 139.313721,167.491302 
	C139.313721,152.800873 139.313721,138.082474 139.313721,123.227470 
	C146.220764,122.535713 151.912216,123.085968 157.804459,128.377182 
	C175.069061,143.880753 196.570786,148.881668 219.157394,149.939789 
	C229.173294,150.409012 239.164215,150.105881 248.576294,145.908417 
	C254.188080,143.405777 259.023834,140.086929 261.425018,134.060043 
	C264.051086,127.468552 262.303345,121.398399 255.867630,118.530540 
	C251.563385,116.612511 246.667542,115.322075 241.974182,115.106583 
	C227.002014,114.419151 211.960510,114.939293 197.022964,113.892151 
	C184.142563,112.989220 171.355270,110.664024 158.557281,108.762619 
	C156.151871,108.405251 153.828140,107.216644 151.571884,106.182213 
	C136.367004,99.211197 132.649628,86.399361 141.882507,71.991035 
z"/>
<path fill="#FCFCFC" opacity="1.000000" stroke="none" 
	d="
M233.315018,170.267120 
	C245.492599,167.284500 257.164764,169.314850 268.895569,170.320816 
	C274.481384,170.799820 280.254272,170.556061 285.802307,169.715225 
	C297.719788,167.909042 306.603790,162.020157 309.704742,149.255554 
	C312.853302,149.255554 315.944946,149.255554 319.413025,149.255554 
	C319.413025,167.313660 319.413025,185.499344 319.413025,203.901276 
	C316.034515,203.901276 312.758575,203.901276 309.816650,203.901276 
	C307.665771,200.065414 305.914673,196.274979 303.569275,192.897171 
	C298.520111,185.625381 291.803772,181.545563 282.494171,181.907257 
	C272.721405,182.286942 262.922485,181.992203 252.830429,181.992203 
	C252.830429,189.385132 252.612427,196.349304 252.900970,203.292435 
	C253.122726,208.628983 256.596619,212.456802 261.075317,214.439926 
	C267.510651,217.289398 274.384155,219.149216 281.635620,221.624313 
	C281.635620,223.387039 281.635620,226.123825 281.635620,229.144882 
	C249.302765,229.144882 217.048904,229.144882 184.440125,229.144882 
	C184.440125,226.484024 184.440125,223.750809 184.440125,221.000519 
	C190.822235,219.714081 197.353317,218.636917 203.744766,217.010925 
	C207.069717,216.165070 210.290024,214.603958 213.306152,212.916504 
	C218.345596,210.097046 220.831146,205.727921 220.720505,199.761261 
	C220.545197,190.308472 220.673752,180.850067 220.673752,171.233826 
	C224.966461,170.911636 228.914490,170.615311 233.315018,170.267120 
z"/>
<path fill="#F4F4F4" opacity="1.000000" stroke="none" 
	d="
M353.988556,122.320229 
	C358.778534,122.320236 363.071289,122.320236 367.606262,122.320236 
	C367.606262,136.230606 367.606262,149.641220 367.606262,163.366455 
	C364.093292,163.366455 360.685394,163.366455 357.381439,163.366455 
	C356.572876,159.006561 356.138702,154.677078 354.935791,150.572891 
	C351.986664,140.511124 345.607849,135.850906 335.098511,135.781693 
	C323.165192,135.703094 311.230927,135.763535 299.203888,135.763535 
	C300.294220,131.199890 301.286346,127.047256 302.415710,122.320221 
	C319.291290,122.320221 336.391327,122.320221 353.988556,122.320229 
z"/>
<path fill="#FBFBFB" opacity="1.000000" stroke="none" 
	d="
M218.716797,140.558380 
	C216.384109,136.002289 212.818573,134.491272 208.256027,134.634338 
	C204.449722,134.753693 200.636719,134.658813 196.453400,134.658813 
	C196.453400,130.703506 196.453400,127.015434 196.453400,122.895851 
	C212.555084,122.895851 228.645065,122.893105 244.735046,122.903732 
	C245.564758,122.904282 246.566406,122.740685 247.194748,123.128571 
	C250.154846,124.955910 254.211609,126.325073 255.620422,129.032120 
	C257.636169,132.905426 254.356857,136.273468 251.076645,138.498657 
	C242.047714,144.623566 231.974350,145.770187 221.477570,143.946793 
	C220.470581,143.771866 219.747925,141.960144 218.716797,140.558380 
z"/>
<path fill="#A50000" opacity="1.000000" stroke="none" 
	d="
M213.014008,77.935944 
	C204.952911,77.938927 197.369705,78.095917 189.653290,75.484505 
	C192.188599,70.178703 196.696808,68.745384 201.215530,68.248428 
	C224.950272,65.638176 247.162659,70.537010 267.817841,82.500565 
	C268.064362,82.643372 268.175629,83.019768 269.079010,84.404526 
	C250.266525,79.430641 232.011658,77.426788 213.014008,77.935944 
z"/>
</svg>