<svg version="1.1" id="Layer_1" xmlns="http://www.w3.org/2000/svg" xmlns:xlink="http://www.w3.org/1999/xlink" x="0px" y="0px"
	 width="100%" viewBox="0 0 512 279" enable-background="new 0 0 512 279" xml:space="preserve">
<path fill="#FEB512" opacity="1.000000" stroke="none" 
	d="
M423.000000,280.000000 
	C377.645782,280.000000 332.291534,280.000000 286.824585,279.716553 
	C278.707428,255.155533 270.703003,230.877930 262.480591,205.939148 
	C256.493469,224.314041 250.690750,241.943405 245.021011,259.615417 
	C242.857147,266.359955 240.998001,273.202240 239.000000,280.000000 
	C197.312439,280.000000 155.624878,280.000000 113.824753,279.716675 
	C110.826195,270.690125 107.915901,261.954834 105.058655,253.202240 
	C95.382103,223.560104 85.699409,193.919922 76.067848,164.263153 
	C69.280235,143.363266 62.728794,122.385132 55.754829,101.548065 
	C52.743244,92.549934 49.955765,83.232506 45.284046,75.081757 
	C33.038731,53.717319 19.856642,32.887886 6.920825,11.923635 
	C5.345228,9.370167 2.992546,7.296193 1.000000,5.000000 
	C1.000000,3.670393 1.000000,2.340785 1.000000,1.005589 
	C51.687561,1.000000 102.375122,1.000000 153.539307,1.389235 
	C161.263641,23.814621 168.511337,45.850769 176.223129,69.297928 
	C180.817917,54.890602 184.922287,42.022873 189.025421,29.154745 
	C192.017792,19.770100 195.008530,10.384933 198.000000,1.000000 
	C240.687561,1.000000 283.375122,1.000000 326.539246,1.389236 
	C336.171448,29.662560 345.327148,57.546646 354.751648,86.249428 
	C358.631561,74.506432 362.362183,63.384972 365.908783,52.205143 
	C366.244049,51.148293 365.513947,49.696312 365.126526,48.476025 
	C360.100372,32.645599 355.046722,16.823902 350.000000,1.000004 
	C404.333344,1.000000 458.666656,1.000000 513.000000,1.000000 
	C513.000000,3.015894 513.000000,5.010043 512.712158,7.166010 
	C511.942444,8.126261 511.289886,8.868258 511.004272,9.731637 
	C507.094177,21.552086 503.225159,33.386181 499.364716,45.223003 
	C489.687714,74.894348 480.027100,104.571030 470.347168,134.241409 
	C460.967987,162.989990 451.544708,191.724228 442.194458,220.482208 
	C435.748962,240.306091 429.394928,260.159698 423.000000,280.000000 
M425.951874,208.457794 
	C446.361267,145.776382 466.770660,83.094986 487.289581,20.077171 
	C449.871216,20.077171 413.305328,20.077171 376.209503,20.077171 
	C379.175262,29.173874 382.232269,37.764561 384.689575,46.523487 
	C385.524719,49.500359 385.678406,53.170090 384.740112,56.068970 
	C364.709473,117.952477 344.473755,179.769577 324.294525,241.605026 
	C322.158386,248.150879 320.125519,254.730438 318.012360,261.396576 
	C319.122528,261.591766 319.611237,261.752594 320.100098,261.752960 
	C348.430786,261.773987 376.761810,261.719299 405.091736,261.871674 
	C408.536804,261.890198 409.185120,259.921967 409.979858,257.477203 
	C415.210358,241.386765 420.474609,225.307281 425.951874,208.457794 
M295.972137,246.516434 
	C297.070190,249.860062 298.168213,253.203705 299.578003,257.496704 
	C300.414978,255.269348 300.918304,254.070114 301.320953,252.837997 
	C315.535400,209.338348 329.775604,165.846970 343.848511,122.301544 
	C344.593994,119.994781 344.546143,117.024284 343.801605,114.704979 
	C334.120148,84.546707 324.183624,54.470310 314.505188,24.311098 
	C313.402954,20.876467 311.945740,19.652187 308.280121,19.673590 
	C281.288788,19.831179 254.296097,19.754517 227.303848,19.771770 
	C225.866135,19.772690 224.428558,19.955660 222.221527,20.106445 
	C246.842102,95.676277 271.290588,170.717865 295.972137,246.516434 
M239.088760,131.354187 
	C228.730576,99.506355 218.372391,67.658516 207.564835,34.429016 
	C182.622238,110.928040 158.133804,186.034149 133.545822,261.445618 
	C135.151306,261.644470 135.955429,261.830688 136.759644,261.831177 
	C164.754929,261.848175 192.750626,261.778931 220.745010,261.938080 
	C224.175156,261.957550 224.887665,260.114990 225.695877,257.625214 
	C234.408020,230.786652 243.198425,203.973312 251.811142,177.102997 
	C252.460449,175.077286 252.469421,172.495010 251.834412,170.466171 
	C247.818741,157.636124 243.537338,144.889221 239.088760,131.354187 
M63.459160,67.099365 
	C64.684479,69.805504 66.176346,72.424332 67.095642,75.230705 
	C84.487854,128.324539 101.810120,181.441254 119.163399,234.547852 
	C119.634384,235.989182 120.287994,237.370834 121.198906,239.629456 
	C121.791977,237.941132 122.021851,237.325989 122.225204,236.702194 
	C136.623871,192.533203 151.050201,148.373138 165.320511,104.162697 
	C165.966568,102.161156 165.679672,99.551079 165.019516,97.482201 
	C157.254547,73.147339 149.255585,48.886959 141.542862,24.535814 
	C140.398422,20.922499 138.857330,19.643190 134.975983,19.663811 
	C103.320641,19.831989 71.664009,19.754240 40.007778,19.770920 
	C38.435375,19.771748 36.863068,19.954363 34.489216,20.102270 
	C44.278168,36.003033 53.661888,51.245548 63.459160,67.099365 
z"/>
<path fill="#000000" opacity="1.000000" stroke="none" 
	d="
M1.000000,5.468657 
	C2.992546,7.296193 5.345228,9.370167 6.920825,11.923635 
	C19.856642,32.887886 33.038731,53.717319 45.284046,75.081757 
	C49.955765,83.232506 52.743244,92.549934 55.754829,101.548065 
	C62.728794,122.385132 69.280235,143.363266 76.067848,164.263153 
	C85.699409,193.919922 95.382103,223.560104 105.058655,253.202240 
	C107.915901,261.954834 110.826195,270.690125 113.356094,279.716675 
	C75.708900,280.000000 38.417801,280.000000 1.000000,280.000000 
	C1.000000,188.645813 1.000000,97.291565 1.000000,5.468657 
z"/>
<path fill="#000000" opacity="1.000000" stroke="none" 
	d="
M423.468658,280.000000 
	C429.394928,260.159698 435.748962,240.306091 442.194458,220.482208 
	C451.544708,191.724228 460.967987,162.989990 470.347168,134.241409 
	C480.027100,104.571030 489.687714,74.894348 499.364716,45.223003 
	C503.225159,33.386181 507.094177,21.552086 511.004272,9.731637 
	C511.289886,8.868258 511.942444,8.126261 512.712158,7.663915 
	C513.000000,98.556984 513.000000,189.113968 513.000000,280.000000 
	C483.313263,280.000000 453.625275,280.000000 423.468658,280.000000 
z"/>
<path fill="#000000" opacity="1.000000" stroke="none" 
	d="
M239.468658,280.000000 
	C240.998001,273.202240 242.857147,266.359955 245.021011,259.615417 
	C250.690750,241.943405 256.493469,224.314041 262.480591,205.939148 
	C270.703003,230.877930 278.707428,255.155533 286.355896,279.716553 
	C270.645782,280.000000 255.291550,280.000000 239.468658,280.000000 
z"/>
<path fill="#000000" opacity="1.000000" stroke="none" 
	d="
M349.531372,1.000004 
	C355.046722,16.823902 360.100372,32.645599 365.126526,48.476025 
	C365.513947,49.696312 366.244049,51.148293 365.908783,52.205143 
	C362.362183,63.384972 358.631561,74.506432 354.751648,86.249428 
	C345.327148,57.546646 336.171448,29.662560 327.007874,1.389236 
	C334.354248,1.000000 341.708496,1.000000 349.531372,1.000004 
z"/>
<path fill="#000000" opacity="1.000000" stroke="none" 
	d="
M197.531342,1.000000 
	C195.008530,10.384933 192.017792,19.770100 189.025421,29.154745 
	C184.922287,42.022873 180.817917,54.890602 176.223129,69.297928 
	C168.511337,45.850769 161.263641,23.814621 154.007965,1.389235 
	C168.354233,1.000000 182.708450,1.000000 197.531342,1.000000 
z"/>
<path fill="#5B1514" opacity="1.000000" stroke="none" 
	d="
M425.839844,208.841003 
	C420.474609,225.307281 415.210358,241.386765 409.979858,257.477203 
	C409.185120,259.921967 408.536804,261.890198 405.091736,261.871674 
	C376.761810,261.719299 348.430786,261.773987 320.100098,261.752960 
	C319.611237,261.752594 319.122528,261.591766 318.012360,261.396576 
	C320.125519,254.730438 322.158386,248.150879 324.294525,241.605026 
	C344.473755,179.769577 364.709473,117.952477 384.740112,56.068970 
	C385.678406,53.170090 385.524719,49.500359 384.689575,46.523487 
	C382.232269,37.764561 379.175262,29.173874 376.209503,20.077171 
	C413.305328,20.077171 449.871216,20.077171 487.289581,20.077171 
	C466.770660,83.094986 446.361267,145.776382 425.839844,208.841003 
z"/>
<path fill="#5B1414" opacity="1.000000" stroke="none" 
	d="
M295.855591,246.137939 
	C271.290588,170.717865 246.842102,95.676277 222.221527,20.106445 
	C224.428558,19.955660 225.866135,19.772690 227.303848,19.771770 
	C254.296097,19.754517 281.288788,19.831179 308.280121,19.673590 
	C311.945740,19.652187 313.402954,20.876467 314.505188,24.311098 
	C324.183624,54.470310 334.120148,84.546707 343.801605,114.704979 
	C344.546143,117.024284 344.593994,119.994781 343.848511,122.301544 
	C329.775604,165.846970 315.535400,209.338348 301.320953,252.837997 
	C300.918304,254.070114 300.414978,255.269348 299.578003,257.496704 
	C298.168213,253.203705 297.070190,249.860062 295.855591,246.137939 
z"/>
<path fill="#5B1514" opacity="1.000000" stroke="none" 
	d="
M239.216202,131.734528 
	C243.537338,144.889221 247.818741,157.636124 251.834412,170.466171 
	C252.469421,172.495010 252.460449,175.077286 251.811142,177.102997 
	C243.198425,203.973312 234.408020,230.786652 225.695877,257.625214 
	C224.887665,260.114990 224.175156,261.957550 220.745010,261.938080 
	C192.750626,261.778931 164.754929,261.848175 136.759644,261.831177 
	C135.955429,261.830688 135.151306,261.644470 133.545822,261.445618 
	C158.133804,186.034149 182.622238,110.928040 207.564835,34.429016 
	C218.372391,67.658516 228.730576,99.506355 239.216202,131.734528 
z"/>
<path fill="#5B1514" opacity="1.000000" stroke="none" 
	d="
M63.252380,66.793716 
	C53.661888,51.245548 44.278168,36.003033 34.489216,20.102270 
	C36.863068,19.954363 38.435375,19.771748 40.007778,19.770920 
	C71.664009,19.754240 103.320641,19.831989 134.975983,19.663811 
	C138.857330,19.643190 140.398422,20.922499 141.542862,24.535814 
	C149.255585,48.886959 157.254547,73.147339 165.019516,97.482201 
	C165.679672,99.551079 165.966568,102.161156 165.320511,104.162697 
	C151.050201,148.373138 136.623871,192.533203 122.225204,236.702194 
	C122.021851,237.325989 121.791977,237.941132 121.198906,239.629456 
	C120.287994,237.370834 119.634384,235.989182 119.163399,234.547852 
	C101.810120,181.441254 84.487854,128.324539 67.095642,75.230705 
	C66.176346,72.424332 64.684479,69.805504 63.252380,66.793716 
z"/>
</svg>